<svg xmlns="http://www.w3.org/2000/svg" xmlns:xlink="http://www.w3.org/1999/xlink" width="80" zoomAndPan="magnify" viewBox="0 0 60 60" height="80" preserveAspectRatio="xMidYMid meet" version="1.0"><defs><clipPath id="72ac8fdc62"><path d="M 3 10.695312 L 57.964844 10.695312 L 57.964844 21 L 3 21 Z M 3 10.695312 " clip-rule="nonzero"/></clipPath><clipPath id="f8e5200399"><path d="M 1.714844 17 L 57.964844 17 L 57.964844 48.945312 L 1.714844 48.945312 Z M 1.714844 17 " clip-rule="nonzero"/></clipPath></defs><path fill="#2e4e79" d="M 26.304688 38.910156 C 26.136719 38.910156 26.003906 38.878906 25.90625 38.746094 C 24.847656 37.71875 24.28125 36.324219 24.28125 34.867188 C 24.28125 31.820312 26.769531 29.332031 29.785156 29.332031 C 32.832031 29.332031 35.316406 31.820312 35.316406 34.867188 C 35.316406 35.234375 35.285156 35.628906 35.21875 35.996094 C 35.152344 36.292969 34.855469 36.492188 34.554688 36.425781 C 34.257812 36.359375 34.058594 36.0625 34.125 35.761719 C 34.191406 35.496094 34.222656 35.167969 34.222656 34.867188 C 34.222656 32.414062 32.234375 30.425781 29.785156 30.425781 C 27.363281 30.425781 25.375 32.414062 25.375 34.867188 C 25.375 36.027344 25.839844 37.15625 26.667969 37.984375 C 26.902344 38.214844 26.902344 38.546875 26.667969 38.777344 C 26.570312 38.878906 26.4375 38.910156 26.304688 38.910156 Z M 26.304688 38.910156 " fill-opacity="1" fill-rule="evenodd"/><path fill="#2e4e79" d="M 28.292969 36.09375 C 27.960938 36.09375 27.730469 35.863281 27.730469 35.5625 L 27.730469 28.109375 C 27.730469 27.777344 27.960938 27.542969 28.292969 27.542969 C 28.589844 27.542969 28.824219 27.777344 28.824219 28.109375 L 28.824219 35.5625 C 28.824219 35.863281 28.589844 36.09375 28.292969 36.09375 Z M 28.292969 36.09375 " fill-opacity="1" fill-rule="evenodd"/><path fill="#2e4e79" d="M 31.339844 36.09375 C 31.007812 36.09375 30.777344 35.863281 30.777344 35.5625 L 30.777344 28.109375 C 30.777344 27.777344 31.007812 27.542969 31.339844 27.542969 C 31.640625 27.542969 31.871094 27.777344 31.871094 28.109375 L 31.871094 35.5625 C 31.871094 35.863281 31.640625 36.09375 31.339844 36.09375 Z M 31.339844 36.09375 " fill-opacity="1" fill-rule="evenodd"/><path fill="#2e4e79" d="M 34.789062 38.910156 L 23.851562 38.910156 C 23.519531 38.910156 23.289062 38.679688 23.289062 38.378906 C 23.289062 38.050781 23.554688 37.816406 23.851562 37.816406 L 34.789062 37.816406 C 35.085938 37.816406 35.316406 38.050781 35.316406 38.378906 C 35.316406 38.679688 35.085938 38.910156 34.789062 38.910156 Z M 34.789062 38.910156 " fill-opacity="1" fill-rule="evenodd"/><path fill="#2e4e79" d="M 49.667969 45.175781 L 37.105469 45.175781 C 36.777344 45.175781 36.542969 44.941406 36.542969 44.644531 C 36.542969 44.3125 36.777344 44.082031 37.105469 44.082031 L 49.136719 44.082031 C 49.402344 41.761719 51.222656 39.9375 53.542969 39.671875 L 53.542969 27.542969 C 51.222656 27.3125 49.402344 25.457031 49.136719 23.105469 L 37.105469 23.105469 C 36.777344 23.105469 36.542969 22.871094 36.542969 22.574219 C 36.542969 22.242188 36.777344 22.011719 37.105469 22.011719 L 49.667969 22.011719 C 49.964844 22.011719 50.195312 22.242188 50.195312 22.574219 C 50.195312 24.726562 51.953125 26.484375 54.105469 26.484375 C 54.40625 26.484375 54.636719 26.714844 54.636719 27.046875 L 54.636719 40.203125 C 54.636719 40.5 54.40625 40.734375 54.105469 40.734375 C 51.953125 40.734375 50.195312 42.488281 50.195312 44.644531 C 50.195312 44.941406 49.964844 45.175781 49.667969 45.175781 Z M 22.890625 45.175781 L 10.332031 45.175781 C 10 45.175781 9.769531 44.941406 9.769531 44.644531 C 9.769531 42.488281 8.011719 40.734375 5.890625 40.734375 C 5.558594 40.734375 5.328125 40.5 5.328125 40.203125 L 5.328125 27.046875 C 5.328125 26.714844 5.558594 26.484375 5.890625 26.484375 C 7.980469 26.484375 9.769531 24.695312 9.769531 22.574219 C 9.769531 22.242188 10 22.011719 10.332031 22.011719 L 22.890625 22.011719 C 23.1875 22.011719 23.421875 22.242188 23.421875 22.574219 C 23.421875 22.871094 23.1875 23.105469 22.890625 23.105469 L 10.828125 23.105469 C 10.730469 24.230469 10.199219 25.292969 9.402344 26.121094 C 8.574219 26.914062 7.546875 27.445312 6.421875 27.542969 L 6.421875 39.671875 C 8.742188 39.9375 10.5625 41.761719 10.828125 44.082031 L 22.859375 44.082031 C 23.1875 44.082031 23.421875 44.3125 23.421875 44.644531 C 23.421875 44.941406 23.1875 45.175781 22.890625 45.175781 Z M 22.890625 45.175781 " fill-opacity="1" fill-rule="evenodd"/><g clip-path="url(#72ac8fdc62)"><path fill="#2e4e79" d="M 57.71875 20.984375 C 57.386719 20.984375 57.15625 20.75 57.15625 20.453125 L 57.15625 13.328125 C 57.15625 12.898438 56.957031 12.433594 56.625 12.167969 C 56.460938 12.003906 56.160156 11.835938 55.796875 11.902344 L 4.300781 19.027344 C 4.003906 19.0625 3.703125 18.863281 3.671875 18.5625 C 3.636719 18.265625 3.835938 17.96875 4.167969 17.933594 L 55.664062 10.808594 C 56.261719 10.710938 56.855469 10.910156 57.355469 11.339844 C 57.917969 11.804688 58.28125 12.566406 58.28125 13.328125 L 58.28125 20.453125 C 58.25 20.75 58.015625 20.984375 57.71875 20.984375 Z M 57.71875 20.984375 " fill-opacity="1" fill-rule="evenodd"/></g><g clip-path="url(#f8e5200399)"><path fill="#2e4e79" d="M 55.730469 49.28125 L 4.234375 49.28125 C 2.84375 49.28125 1.714844 48.15625 1.714844 46.765625 L 1.714844 20.453125 C 1.714844 19.0625 2.84375 17.933594 4.234375 17.933594 L 55.730469 17.933594 C 57.121094 17.933594 58.25 19.0625 58.25 20.453125 L 58.25 46.765625 C 58.25 48.15625 57.121094 49.28125 55.730469 49.28125 Z M 4.234375 19.027344 C 3.4375 19.027344 2.808594 19.65625 2.808594 20.453125 L 2.808594 46.765625 C 2.808594 47.527344 3.472656 48.1875 4.234375 48.1875 L 55.730469 48.1875 C 56.527344 48.1875 57.15625 47.558594 57.15625 46.765625 L 57.15625 20.453125 C 57.15625 19.691406 56.492188 19.027344 55.730469 19.027344 Z M 4.234375 19.027344 " fill-opacity="1" fill-rule="evenodd"/></g><path fill="#2e4e79" d="M 11.125 36.195312 C 9.667969 36.195312 8.507812 35.035156 8.507812 33.609375 C 8.507812 32.152344 9.667969 30.992188 11.125 30.992188 C 12.585938 30.992188 13.746094 32.152344 13.746094 33.609375 C 13.746094 35.035156 12.585938 36.195312 11.125 36.195312 Z M 11.125 32.085938 C 10.296875 32.085938 9.601562 32.78125 9.601562 33.609375 C 9.601562 34.4375 10.296875 35.101562 11.125 35.101562 C 11.957031 35.101562 12.652344 34.4375 12.652344 33.609375 C 12.652344 32.78125 11.957031 32.085938 11.125 32.085938 Z M 11.125 32.085938 " fill-opacity="1" fill-rule="evenodd"/><path fill="#2e4e79" d="M 48.835938 36.195312 C 47.378906 36.195312 46.21875 35.035156 46.21875 33.609375 C 46.21875 32.152344 47.378906 30.992188 48.835938 30.992188 C 50.261719 30.992188 51.421875 32.152344 51.421875 33.609375 C 51.421875 35.035156 50.261719 36.195312 48.835938 36.195312 Z M 48.835938 32.085938 C 48.007812 32.085938 47.3125 32.78125 47.3125 33.609375 C 47.3125 34.4375 48.007812 35.101562 48.835938 35.101562 C 49.667969 35.101562 50.328125 34.4375 50.328125 33.609375 C 50.328125 32.746094 49.667969 32.085938 48.835938 32.085938 Z M 48.835938 32.085938 " fill-opacity="1" fill-rule="evenodd"/><path fill="#2e4e79" d="M 6.386719 23.832031 L 4.300781 23.832031 C 3.96875 23.832031 3.738281 23.601562 3.738281 23.304688 C 3.738281 22.972656 3.96875 22.738281 4.300781 22.738281 L 6.386719 22.738281 C 6.6875 22.738281 6.917969 22.972656 6.917969 23.304688 C 6.917969 23.601562 6.6875 23.832031 6.386719 23.832031 Z M 6.386719 23.832031 " fill-opacity="1" fill-rule="evenodd"/><path fill="#2e4e79" d="M 55.699219 23.832031 L 53.609375 23.832031 C 53.277344 23.832031 53.046875 23.601562 53.046875 23.304688 C 53.046875 22.972656 53.277344 22.738281 53.609375 22.738281 L 55.699219 22.738281 C 55.996094 22.738281 56.226562 22.972656 56.226562 23.304688 C 56.226562 23.601562 55.996094 23.832031 55.699219 23.832031 Z M 55.699219 23.832031 " fill-opacity="1" fill-rule="evenodd"/><path fill="#2e4e79" d="M 6.386719 44.445312 L 4.300781 44.445312 C 3.96875 44.445312 3.738281 44.210938 3.738281 43.914062 C 3.738281 43.582031 3.96875 43.351562 4.300781 43.351562 L 6.386719 43.351562 C 6.6875 43.351562 6.917969 43.582031 6.917969 43.914062 C 6.917969 44.210938 6.6875 44.445312 6.386719 44.445312 Z M 6.386719 44.445312 " fill-opacity="1" fill-rule="evenodd"/><path fill="#2e4e79" d="M 55.699219 44.445312 L 53.609375 44.445312 C 53.277344 44.445312 53.046875 44.210938 53.046875 43.914062 C 53.046875 43.582031 53.277344 43.351562 53.609375 43.351562 L 55.699219 43.351562 C 55.996094 43.351562 56.226562 43.582031 56.226562 43.914062 C 56.226562 44.210938 55.996094 44.445312 55.699219 44.445312 Z M 55.699219 44.445312 " fill-opacity="1" fill-rule="evenodd"/><path fill="#2e4e79" d="M 29.949219 47.261719 C 22.425781 47.261719 16.296875 41.132812 16.296875 33.609375 C 16.296875 26.054688 22.425781 19.921875 29.949219 19.921875 C 37.503906 19.921875 43.636719 26.054688 43.636719 33.609375 C 43.636719 37.253906 42.210938 40.699219 39.625 43.285156 C 37.074219 45.871094 33.628906 47.261719 29.949219 47.261719 Z M 29.949219 21.015625 C 23.023438 21.015625 17.390625 26.683594 17.390625 33.609375 C 17.390625 40.535156 23.054688 46.167969 29.949219 46.167969 C 36.90625 46.167969 42.542969 40.535156 42.542969 33.609375 C 42.542969 26.648438 36.90625 21.015625 29.949219 21.015625 Z M 29.949219 21.015625 " fill-opacity="1" fill-rule="evenodd"/><path fill="#2e4e79" d="M 29.949219 45.042969 C 23.652344 45.042969 18.515625 39.90625 18.515625 33.609375 C 18.515625 27.28125 23.652344 22.144531 29.949219 22.144531 C 36.3125 22.144531 41.449219 27.28125 41.449219 33.609375 C 41.449219 39.90625 36.3125 45.042969 29.949219 45.042969 Z M 29.949219 23.238281 C 24.25 23.238281 19.609375 27.875 19.609375 33.609375 C 19.609375 39.308594 24.25 43.949219 29.949219 43.949219 C 35.683594 43.949219 40.355469 39.308594 40.355469 33.609375 C 40.355469 27.875 35.683594 23.238281 29.949219 23.238281 Z M 29.949219 23.238281 " fill-opacity="1" fill-rule="evenodd"/><path stroke-linecap="butt" transform="matrix(0.740074, -0.121614, 0.121614, 0.740074, 8.130973, 17.720835)" fill="none" stroke-linejoin="miter" d="M -0.00026921 0.498566 L 7.447365 0.497872 " stroke="#2e4e79" stroke-width="1" stroke-opacity="1" stroke-miterlimit="4"/></svg>